<svg id="Layer_1" data-name="Layer 1" xmlns="http://www.w3.org/2000/svg" xmlns:xlink="http://www.w3.org/1999/xlink" viewBox="0 0 1050 322"><defs><style>.cls-1{fill:url(#linear-gradient);}.cls-2,.cls-3,.cls-4{stroke:#fff;stroke-miterlimit:10;stroke-width:10px;}.cls-2{fill:url(#linear-gradient-2);filter:url(#filter);}.cls-3{fill:url(#linear-gradient-3);filter:url(#filter-2);}.cls-4{fill:url(#linear-gradient-4);filter:url(#filter-3);}.cls-5{fill:#fff;}</style><linearGradient id="linear-gradient" x1="209.33" y1="-154.67" x2="840.67" y2="476.67" gradientUnits="userSpaceOnUse"><stop offset="0.2" stop-color="#27272a"/><stop offset="1" stop-color="#18181b"/></linearGradient><linearGradient id="linear-gradient-2" x1="100.65" y1="82.99" x2="256.99" y2="239.33" xlink:href="#linear-gradient"/><filter id="filter" x="74.08" y="29.09" width="245" height="264" filterUnits="userSpaceOnUse"><feOffset dx="-10" input="SourceAlpha"/><feGaussianBlur stdDeviation="10" result="blur"/><feFlood/><feComposite operator="in" in2="blur"/><feComposite in="SourceGraphic"/></filter><linearGradient id="linear-gradient-3" x1="224.96" y1="81.4" x2="385.15" y2="241.6" xlink:href="#linear-gradient"/><filter id="filter-2" x="196.08" y="29.09" width="198" height="264" filterUnits="userSpaceOnUse"><feOffset dx="-10" input="SourceAlpha"/><feGaussianBlur stdDeviation="10" result="blur-2"/><feFlood/><feComposite operator="in" in2="blur-2"/><feComposite in="SourceGraphic"/></filter><linearGradient id="linear-gradient-4" x1="318.53" y1="51.16" x2="476.93" y2="209.56" xlink:href="#linear-gradient"/><filter id="filter-3" x="258.08" y="29.09" width="260" height="264" filterUnits="userSpaceOnUse"><feOffset dx="-10" input="SourceAlpha"/><feGaussianBlur stdDeviation="10" result="blur-3"/><feFlood/><feComposite operator="in" in2="blur-3"/><feComposite in="SourceGraphic"/></filter></defs><rect class="cls-1" width="1050" height="322" rx="93.3"/><path class="cls-2" d="M199.25,64.49q40,0,67,27.75t26.93,68.92q0,41.15-26.93,68.91t-67,27.76h-80.1V64.49Zm0,139.75q16.84,0,27.76-12t10.91-31.07q0-19.07-10.91-31.08t-27.76-12h-22.1v86.17Z"/><path class="cls-3" d="M297.11,207h71.82v50.82H241.87V64.49H367.54v50.26H297.11v21h63.53v49.72H297.11Z"/><path class="cls-4" d="M366.8,257.83,305.2,64.49H366L397.73,187.4,429.49,64.49h60.77L428.67,257.83Z"/><path class="cls-5" d="M555.77,204H540.16v28.72q0,3.6,1.8,5.25a8.24,8.24,0,0,0,5.25,1.87,80.46,80.46,0,0,0,8.56-.07v16.15q-18.37,2.07-25.89-3.45t-7.53-19.75V204h-12V186.84h12v-14l17.81-5.38v19.33h15.61Z"/><path class="cls-5" d="M606.73,184.91q11.32,0,18.71,7.6t7.39,21v42.39H615V215.71q0-6.92-3.73-10.57t-9.94-3.66q-6.9,0-11.05,4.28t-4.14,12.85v37.28H568.34V159.22h17.81v35.36Q592.65,184.9,606.73,184.91Z"/><path class="cls-5" d="M665.84,198.72a18.56,18.56,0,0,1,8.21-9.94,25.06,25.06,0,0,1,12.78-3.32v19.89a21,21,0,0,0-14.57,3.31q-6.42,4.29-6.42,14.23v33H648v-69h17.82Z"/><path class="cls-5" d="M709.61,228.69q3.6,13,19.47,13,10.23,0,15.47-6.9l14.36,8.28q-10.21,14.77-30.1,14.78-17.13,0-27.48-10.36T691,221.37q0-15.6,10.22-26t26.24-10.43q15.18,0,25.06,10.5t9.88,26a42.76,42.76,0,0,1-.69,7.32Zm-.27-13.81h35.21c-1-4.7-3.11-8.19-6.28-10.5a18,18,0,0,0-10.84-3.45,18.74,18.74,0,0,0-11.88,3.66A17.47,17.47,0,0,0,709.34,214.88Z"/><path class="cls-5" d="M826.72,186.84h17.82v69H826.72v-8.14q-8,10.08-22.51,10.08-13.82,0-23.69-10.57t-9.87-25.89q0-15.33,9.87-25.9t23.69-10.56q14.5,0,22.51,10.08Zm-32.87,48.55a18.42,18.42,0,0,0,13.67,5.45,18.63,18.63,0,0,0,13.74-5.45,20.73,20.73,0,0,0,0-28,18.59,18.59,0,0,0-13.74-5.45,18.38,18.38,0,0,0-13.67,5.45q-5.39,5.46-5.38,14T793.85,235.39Z"/><path class="cls-5" d="M913,159.22h17.82v96.67H913v-8.14q-7.87,10.08-22.37,10.08-13.95,0-23.82-10.57T857,221.37q0-15.33,9.88-25.9t23.82-10.56q14.51,0,22.37,10.08Zm-32.8,76.17A18.67,18.67,0,0,0,894,240.84a18.42,18.42,0,0,0,13.67-5.45q5.39-5.46,5.38-14t-5.38-14A18.38,18.38,0,0,0,894,201.9a18.63,18.63,0,0,0-13.75,5.45,20.76,20.76,0,0,0,0,28Z"/><path class="cls-5" d="M555.77,71.86V64.17H510.33v7.69h12v28.73q0,14.22,7.53,19.75t25.89,3.45V107.63a75.45,75.45,0,0,1-8.56.07,8.27,8.27,0,0,1-5.25-1.86q-1.8-1.66-1.8-5.25V71.86Z"/><path class="cls-5" d="M628.42,64.17H568.34v59.62h17.81V86.5q0-8.56,4.14-12.84t11.05-4.28q6.23,0,9.94,3.66T615,83.6v40.19h17.82V81.39Q632.83,71.06,628.42,64.17Z"/><path class="cls-5" d="M666.92,64.17a21.84,21.84,0,0,0-1.08,2.45V64.17H648v59.62h17.82v-33q0-9.94,6.42-14.22a21,21,0,0,1,14.57-3.31V64.17Z"/><path class="cls-5" d="M762.37,89.26q0-14.82-9.1-25.09h-53Q691,74.35,691,89.26q0,15.75,10.36,26.11t27.48,10.35q19.89,0,30.1-14.77l-14.36-8.29q-5.25,6.91-15.47,6.91-15.89,0-19.47-13h52.07A42.58,42.58,0,0,0,762.37,89.26Zm-53-6.49a17.45,17.45,0,0,1,6.21-10.28,18.74,18.74,0,0,1,11.88-3.66,18,18,0,0,1,10.84,3.45q4.76,3.45,6.28,10.49Z"/><path class="cls-5" d="M779.8,64.17q-9.15,10.33-9.15,25.09,0,15.33,9.87,25.9t23.69,10.56q14.5,0,22.51-10.08v8.15h17.82V64.17Zm41.46,39.11a18.6,18.6,0,0,1-13.74,5.46,18.39,18.39,0,0,1-13.67-5.46q-5.39-5.44-5.38-14t5.38-14a18.39,18.39,0,0,1,13.67-5.46,18.6,18.6,0,0,1,13.74,5.46,19,19,0,0,1,5.46,14Q826.72,97.82,821.26,103.28Z"/><path class="cls-5" d="M866.12,64.17Q857,74.51,857,89.26q0,15.33,9.88,25.9t23.82,10.56q14.51,0,22.37-10.08v8.15h17.82V64.17Zm41.53,39.11A18.39,18.39,0,0,1,894,108.74a18.64,18.64,0,0,1-13.75-5.46q-5.44-5.44-5.45-14a19,19,0,0,1,5.45-14A18.64,18.64,0,0,1,894,69.79a18.39,18.39,0,0,1,13.67,5.46q5.39,5.46,5.38,14T907.65,103.28Z"/></svg>